solid outlet
 facet normal -0 0 1
  outer loop
   vertex -0.4875 -0.8125 4
   vertex -0.8125 -0.8125 4
   vertex -0.6 -1 4
  endloop
 endfacet
 facet normal 0 0 1
  outer loop
   vertex -1 -1 4
   vertex -0.6 -1 4
   vertex -0.8125 -0.8125 4
  endloop
 endfacet
 facet normal -0 0 1
  outer loop
   vertex -0.375 -0.625 4
   vertex -0.625 -0.625 4
   vertex -0.4875 -0.8125 4
  endloop
 endfacet
 facet normal 0 0 1
  outer loop
   vertex -0.8125 -0.8125 4
   vertex -0.4875 -0.8125 4
   vertex -0.625 -0.625 4
  endloop
 endfacet
 facet normal -0 0 1
  outer loop
   vertex -0.2625 -0.4375 4
   vertex -0.4375 -0.4375 4
   vertex -0.375 -0.625 4
  endloop
 endfacet
 facet normal 0 0 1
  outer loop
   vertex -0.625 -0.625 4
   vertex -0.375 -0.625 4
   vertex -0.4375 -0.4375 4
  endloop
 endfacet
 facet normal 0 0 1
  outer loop
   vertex -0.4375 -0.4375 4
   vertex -0.2625 -0.4375 4
   vertex -0.25 -0.25 4
  endloop
 endfacet
 facet normal -0 0 1
  outer loop
   vertex -0.15 -0.25 4
   vertex -0.25 -0.25 4
   vertex -0.2625 -0.4375 4
  endloop
 endfacet
 facet normal -0 0 1
  outer loop
   vertex -0.1625 -0.8125 4
   vertex -0.4875 -0.8125 4
   vertex -0.2 -1 4
  endloop
 endfacet
 facet normal 0 0 1
  outer loop
   vertex -0.6 -1 4
   vertex -0.2 -1 4
   vertex -0.4875 -0.8125 4
  endloop
 endfacet
 facet normal -0 0 1
  outer loop
   vertex -0.125 -0.625 4
   vertex -0.375 -0.625 4
   vertex -0.1625 -0.8125 4
  endloop
 endfacet
 facet normal 0 0 1
  outer loop
   vertex -0.1625 -0.8125 4
   vertex -0.375 -0.625 4
   vertex -0.4875 -0.8125 4
  endloop
 endfacet
 facet normal 0 0 1
  outer loop
   vertex -0.375 -0.625 4
   vertex -0.125 -0.625 4
   vertex -0.2625 -0.4375 4
  endloop
 endfacet
 facet normal -0 0 1
  outer loop
   vertex -0.0875 -0.4375 4
   vertex -0.2625 -0.4375 4
   vertex -0.125 -0.625 4
  endloop
 endfacet
 facet normal 0 0 1
  outer loop
   vertex -0.2625 -0.4375 4
   vertex -0.0875 -0.4375 4
   vertex -0.15 -0.25 4
  endloop
 endfacet
 facet normal -0 0 1
  outer loop
   vertex -0.05 -0.25 4
   vertex -0.15 -0.25 4
   vertex -0.0875 -0.4375 4
  endloop
 endfacet
 facet normal 0 0 1
  outer loop
   vertex -0.2 -1 4
   vertex 0.2 -1 4
   vertex -0.1625 -0.8125 4
  endloop
 endfacet
 facet normal -0 0 1
  outer loop
   vertex 0.1625 -0.8125 4
   vertex -0.1625 -0.8125 4
   vertex 0.2 -1 4
  endloop
 endfacet
 facet normal 0 0 1
  outer loop
   vertex -0.1625 -0.8125 4
   vertex 0.1625 -0.8125 4
   vertex -0.125 -0.625 4
  endloop
 endfacet
 facet normal -0 0 1
  outer loop
   vertex 0.125 -0.625 4
   vertex -0.125 -0.625 4
   vertex 0.1625 -0.8125 4
  endloop
 endfacet
 facet normal 0 0 1
  outer loop
   vertex -0.125 -0.625 4
   vertex 0.125 -0.625 4
   vertex -0.0875 -0.4375 4
  endloop
 endfacet
 facet normal -0 0 1
  outer loop
   vertex 0.0875 -0.4375 4
   vertex -0.0875 -0.4375 4
   vertex 0.125 -0.625 4
  endloop
 endfacet
 facet normal 0 0 1
  outer loop
   vertex -0.0875 -0.4375 4
   vertex 0.0875 -0.4375 4
   vertex -0.05 -0.25 4
  endloop
 endfacet
 facet normal -0 0 1
  outer loop
   vertex 0.05 -0.25 4
   vertex -0.05 -0.25 4
   vertex 0.0875 -0.4375 4
  endloop
 endfacet
 facet normal 0 0 1
  outer loop
   vertex 0.1625 -0.8125 4
   vertex 0.2 -1 4
   vertex 0.4875 -0.8125 4
  endloop
 endfacet
 facet normal 0 0 1
  outer loop
   vertex 0.6 -1 4
   vertex 0.4875 -0.8125 4
   vertex 0.2 -1 4
  endloop
 endfacet
 facet normal 0 0 1
  outer loop
   vertex 0.125 -0.625 4
   vertex 0.1625 -0.8125 4
   vertex 0.375 -0.625 4
  endloop
 endfacet
 facet normal 0 -0 1
  outer loop
   vertex 0.1625 -0.8125 4
   vertex 0.4875 -0.8125 4
   vertex 0.375 -0.625 4
  endloop
 endfacet
 facet normal 0 0 1
  outer loop
   vertex 0.375 -0.625 4
   vertex 0.2625 -0.4375 4
   vertex 0.125 -0.625 4
  endloop
 endfacet
 facet normal 0 0 1
  outer loop
   vertex 0.0875 -0.4375 4
   vertex 0.125 -0.625 4
   vertex 0.2625 -0.4375 4
  endloop
 endfacet
 facet normal 0 0 1
  outer loop
   vertex 0.2625 -0.4375 4
   vertex 0.15 -0.25 4
   vertex 0.0875 -0.4375 4
  endloop
 endfacet
 facet normal 0 0 1
  outer loop
   vertex 0.05 -0.25 4
   vertex 0.0875 -0.4375 4
   vertex 0.15 -0.25 4
  endloop
 endfacet
 facet normal 0 0 1
  outer loop
   vertex 0.4875 -0.8125 4
   vertex 0.6 -1 4
   vertex 0.8125 -0.8125 4
  endloop
 endfacet
 facet normal 0 0 1
  outer loop
   vertex 1 -1 4
   vertex 0.8125 -0.8125 4
   vertex 0.6 -1 4
  endloop
 endfacet
 facet normal 0 0 1
  outer loop
   vertex 0.375 -0.625 4
   vertex 0.4875 -0.8125 4
   vertex 0.625 -0.625 4
  endloop
 endfacet
 facet normal 0 0 1
  outer loop
   vertex 0.8125 -0.8125 4
   vertex 0.625 -0.625 4
   vertex 0.4875 -0.8125 4
  endloop
 endfacet
 facet normal 0 0 1
  outer loop
   vertex 0.2625 -0.4375 4
   vertex 0.375 -0.625 4
   vertex 0.4375 -0.4375 4
  endloop
 endfacet
 facet normal 0 0 1
  outer loop
   vertex 0.625 -0.625 4
   vertex 0.4375 -0.4375 4
   vertex 0.375 -0.625 4
  endloop
 endfacet
 facet normal 0 0 1
  outer loop
   vertex 0.4375 -0.4375 4
   vertex 0.25 -0.25 4
   vertex 0.2625 -0.4375 4
  endloop
 endfacet
 facet normal 0 0 1
  outer loop
   vertex 0.15 -0.25 4
   vertex 0.2625 -0.4375 4
   vertex 0.25 -0.25 4
  endloop
 endfacet
 facet normal 0 0 1
  outer loop
   vertex 0.4375 -0.4375 4
   vertex 0.4375 -0.2625 4
   vertex 0.25 -0.25 4
  endloop
 endfacet
 facet normal 0 0 1
  outer loop
   vertex 0.25 -0.15 4
   vertex 0.25 -0.25 4
   vertex 0.4375 -0.2625 4
  endloop
 endfacet
 facet normal 0 0 1
  outer loop
   vertex 0.4375 -0.2625 4
   vertex 0.4375 -0.0875 4
   vertex 0.25 -0.15 4
  endloop
 endfacet
 facet normal 0 0 1
  outer loop
   vertex 0.25 -0.05 4
   vertex 0.25 -0.15 4
   vertex 0.4375 -0.0875 4
  endloop
 endfacet
 facet normal 0 0 1
  outer loop
   vertex 0.4375 -0.0875 4
   vertex 0.4375 0.0875 4
   vertex 0.25 -0.05 4
  endloop
 endfacet
 facet normal 0 0 1
  outer loop
   vertex 0.25 0.05 4
   vertex 0.25 -0.05 4
   vertex 0.4375 0.0875 4
  endloop
 endfacet
 facet normal -0 0 1
  outer loop
   vertex 0.4375 0.2625 4
   vertex 0.25 0.15 4
   vertex 0.4375 0.0875 4
  endloop
 endfacet
 facet normal 0 0 1
  outer loop
   vertex 0.25 0.05 4
   vertex 0.4375 0.0875 4
   vertex 0.25 0.15 4
  endloop
 endfacet
 facet normal -0 0 1
  outer loop
   vertex 0.4375 0.4375 4
   vertex 0.25 0.25 4
   vertex 0.4375 0.2625 4
  endloop
 endfacet
 facet normal 0 0 1
  outer loop
   vertex 0.25 0.15 4
   vertex 0.4375 0.2625 4
   vertex 0.25 0.25 4
  endloop
 endfacet
 facet normal 0 0 1
  outer loop
   vertex 0.4375 -0.2625 4
   vertex 0.4375 -0.4375 4
   vertex 0.625 -0.375 4
  endloop
 endfacet
 facet normal 0 0 1
  outer loop
   vertex 0.625 -0.625 4
   vertex 0.625 -0.375 4
   vertex 0.4375 -0.4375 4
  endloop
 endfacet
 facet normal 0 0 1
  outer loop
   vertex 0.625 -0.375 4
   vertex 0.625 -0.125 4
   vertex 0.4375 -0.2625 4
  endloop
 endfacet
 facet normal 0 0 1
  outer loop
   vertex 0.4375 -0.0875 4
   vertex 0.4375 -0.2625 4
   vertex 0.625 -0.125 4
  endloop
 endfacet
 facet normal 0 0 1
  outer loop
   vertex 0.625 -0.125 4
   vertex 0.625 0.125 4
   vertex 0.4375 -0.0875 4
  endloop
 endfacet
 facet normal 0 0 1
  outer loop
   vertex 0.4375 0.0875 4
   vertex 0.4375 -0.0875 4
   vertex 0.625 0.125 4
  endloop
 endfacet
 facet normal -0 0 1
  outer loop
   vertex 0.625 0.375 4
   vertex 0.4375 0.2625 4
   vertex 0.625 0.125 4
  endloop
 endfacet
 facet normal 0 0 1
  outer loop
   vertex 0.4375 0.0875 4
   vertex 0.625 0.125 4
   vertex 0.4375 0.2625 4
  endloop
 endfacet
 facet normal 0 0 1
  outer loop
   vertex 0.4375 0.2625 4
   vertex 0.625 0.375 4
   vertex 0.4375 0.4375 4
  endloop
 endfacet
 facet normal -0 0 1
  outer loop
   vertex 0.625 0.625 4
   vertex 0.4375 0.4375 4
   vertex 0.625 0.375 4
  endloop
 endfacet
 facet normal 0 0 1
  outer loop
   vertex 0.625 -0.375 4
   vertex 0.625 -0.625 4
   vertex 0.8125 -0.4875 4
  endloop
 endfacet
 facet normal 0 0 1
  outer loop
   vertex 0.8125 -0.8125 4
   vertex 0.8125 -0.4875 4
   vertex 0.625 -0.625 4
  endloop
 endfacet
 facet normal 0 0 1
  outer loop
   vertex 0.625 -0.125 4
   vertex 0.625 -0.375 4
   vertex 0.8125 -0.1625 4
  endloop
 endfacet
 facet normal 0 0 1
  outer loop
   vertex 0.8125 -0.1625 4
   vertex 0.625 -0.375 4
   vertex 0.8125 -0.4875 4
  endloop
 endfacet
 facet normal 0 0 1
  outer loop
   vertex 0.8125 -0.1625 4
   vertex 0.8125 0.1625 4
   vertex 0.625 -0.125 4
  endloop
 endfacet
 facet normal 0 0 1
  outer loop
   vertex 0.625 0.125 4
   vertex 0.625 -0.125 4
   vertex 0.8125 0.1625 4
  endloop
 endfacet
 facet normal 0 0 1
  outer loop
   vertex 0.625 0.125 4
   vertex 0.8125 0.1625 4
   vertex 0.625 0.375 4
  endloop
 endfacet
 facet normal 0 0 1
  outer loop
   vertex 0.8125 0.1625 4
   vertex 0.8125 0.4875 4
   vertex 0.625 0.375 4
  endloop
 endfacet
 facet normal 0 0 1
  outer loop
   vertex 0.625 0.375 4
   vertex 0.8125 0.4875 4
   vertex 0.625 0.625 4
  endloop
 endfacet
 facet normal -0 0 1
  outer loop
   vertex 0.8125 0.8125 4
   vertex 0.625 0.625 4
   vertex 0.8125 0.4875 4
  endloop
 endfacet
 facet normal 0 0 1
  outer loop
   vertex 0.8125 -0.4875 4
   vertex 0.8125 -0.8125 4
   vertex 1 -0.6 4
  endloop
 endfacet
 facet normal 0 0 1
  outer loop
   vertex 1 -1 4
   vertex 1 -0.6 4
   vertex 0.8125 -0.8125 4
  endloop
 endfacet
 facet normal 0 0 1
  outer loop
   vertex 0.8125 -0.1625 4
   vertex 0.8125 -0.4875 4
   vertex 1 -0.2 4
  endloop
 endfacet
 facet normal 0 0 1
  outer loop
   vertex 1 -0.6 4
   vertex 1 -0.2 4
   vertex 0.8125 -0.4875 4
  endloop
 endfacet
 facet normal 0 0 1
  outer loop
   vertex 1 -0.2 4
   vertex 1 0.2 4
   vertex 0.8125 -0.1625 4
  endloop
 endfacet
 facet normal 0 0 1
  outer loop
   vertex 0.8125 0.1625 4
   vertex 0.8125 -0.1625 4
   vertex 1 0.2 4
  endloop
 endfacet
 facet normal 0 0 1
  outer loop
   vertex 0.8125 0.1625 4
   vertex 1 0.2 4
   vertex 0.8125 0.4875 4
  endloop
 endfacet
 facet normal -0 0 1
  outer loop
   vertex 1 0.6 4
   vertex 0.8125 0.4875 4
   vertex 1 0.2 4
  endloop
 endfacet
 facet normal 0 0 1
  outer loop
   vertex 0.8125 0.4875 4
   vertex 1 0.6 4
   vertex 0.8125 0.8125 4
  endloop
 endfacet
 facet normal -0 0 1
  outer loop
   vertex 1 1 4
   vertex 0.8125 0.8125 4
   vertex 1 0.6 4
  endloop
 endfacet
 facet normal 0 0 1
  outer loop
   vertex -0.4375 0.4375 4
   vertex -0.25 0.25 4
   vertex -0.2625 0.4375 4
  endloop
 endfacet
 facet normal 0 0 1
  outer loop
   vertex -0.15 0.25 4
   vertex -0.2625 0.4375 4
   vertex -0.25 0.25 4
  endloop
 endfacet
 facet normal 0 0 1
  outer loop
   vertex -0.2625 0.4375 4
   vertex -0.375 0.625 4
   vertex -0.4375 0.4375 4
  endloop
 endfacet
 facet normal 0 0 1
  outer loop
   vertex -0.625 0.625 4
   vertex -0.4375 0.4375 4
   vertex -0.375 0.625 4
  endloop
 endfacet
 facet normal 0 0 1
  outer loop
   vertex -0.375 0.625 4
   vertex -0.4875 0.8125 4
   vertex -0.625 0.625 4
  endloop
 endfacet
 facet normal 0 0 1
  outer loop
   vertex -0.8125 0.8125 4
   vertex -0.625 0.625 4
   vertex -0.4875 0.8125 4
  endloop
 endfacet
 facet normal 0 0 1
  outer loop
   vertex -0.4875 0.8125 4
   vertex -0.6 1 4
   vertex -0.8125 0.8125 4
  endloop
 endfacet
 facet normal 0 0 1
  outer loop
   vertex -1 1 4
   vertex -0.8125 0.8125 4
   vertex -0.6 1 4
  endloop
 endfacet
 facet normal 0 0 1
  outer loop
   vertex -0.2625 0.4375 4
   vertex -0.15 0.25 4
   vertex -0.0875 0.4375 4
  endloop
 endfacet
 facet normal 0 0 1
  outer loop
   vertex -0.05 0.25 4
   vertex -0.0875 0.4375 4
   vertex -0.15 0.25 4
  endloop
 endfacet
 facet normal 0 0 1
  outer loop
   vertex -0.375 0.625 4
   vertex -0.2625 0.4375 4
   vertex -0.125 0.625 4
  endloop
 endfacet
 facet normal 0 0 1
  outer loop
   vertex -0.0875 0.4375 4
   vertex -0.125 0.625 4
   vertex -0.2625 0.4375 4
  endloop
 endfacet
 facet normal 0 0 1
  outer loop
   vertex -0.125 0.625 4
   vertex -0.1625 0.8125 4
   vertex -0.375 0.625 4
  endloop
 endfacet
 facet normal -0 0 1
  outer loop
   vertex -0.1625 0.8125 4
   vertex -0.4875 0.8125 4
   vertex -0.375 0.625 4
  endloop
 endfacet
 facet normal 0 0 1
  outer loop
   vertex -0.1625 0.8125 4
   vertex -0.2 1 4
   vertex -0.4875 0.8125 4
  endloop
 endfacet
 facet normal 0 0 1
  outer loop
   vertex -0.6 1 4
   vertex -0.4875 0.8125 4
   vertex -0.2 1 4
  endloop
 endfacet
 facet normal -0 0 1
  outer loop
   vertex 0.0875 0.4375 4
   vertex -0.0875 0.4375 4
   vertex 0.05 0.25 4
  endloop
 endfacet
 facet normal 0 0 1
  outer loop
   vertex -0.05 0.25 4
   vertex 0.05 0.25 4
   vertex -0.0875 0.4375 4
  endloop
 endfacet
 facet normal -0 0 1
  outer loop
   vertex 0.125 0.625 4
   vertex -0.125 0.625 4
   vertex 0.0875 0.4375 4
  endloop
 endfacet
 facet normal 0 0 1
  outer loop
   vertex -0.0875 0.4375 4
   vertex 0.0875 0.4375 4
   vertex -0.125 0.625 4
  endloop
 endfacet
 facet normal -0 0 1
  outer loop
   vertex 0.1625 0.8125 4
   vertex -0.1625 0.8125 4
   vertex 0.125 0.625 4
  endloop
 endfacet
 facet normal 0 0 1
  outer loop
   vertex -0.125 0.625 4
   vertex 0.125 0.625 4
   vertex -0.1625 0.8125 4
  endloop
 endfacet
 facet normal -0 0 1
  outer loop
   vertex 0.2 1 4
   vertex -0.2 1 4
   vertex 0.1625 0.8125 4
  endloop
 endfacet
 facet normal 0 0 1
  outer loop
   vertex -0.1625 0.8125 4
   vertex 0.1625 0.8125 4
   vertex -0.2 1 4
  endloop
 endfacet
 facet normal -0 0 1
  outer loop
   vertex 0.2625 0.4375 4
   vertex 0.0875 0.4375 4
   vertex 0.15 0.25 4
  endloop
 endfacet
 facet normal 0 0 1
  outer loop
   vertex 0.05 0.25 4
   vertex 0.15 0.25 4
   vertex 0.0875 0.4375 4
  endloop
 endfacet
 facet normal -0 0 1
  outer loop
   vertex 0.375 0.625 4
   vertex 0.125 0.625 4
   vertex 0.2625 0.4375 4
  endloop
 endfacet
 facet normal 0 0 1
  outer loop
   vertex 0.0875 0.4375 4
   vertex 0.2625 0.4375 4
   vertex 0.125 0.625 4
  endloop
 endfacet
 facet normal 0 0 1
  outer loop
   vertex 0.125 0.625 4
   vertex 0.375 0.625 4
   vertex 0.1625 0.8125 4
  endloop
 endfacet
 facet normal 0 -0 1
  outer loop
   vertex 0.1625 0.8125 4
   vertex 0.375 0.625 4
   vertex 0.4875 0.8125 4
  endloop
 endfacet
 facet normal 0 0 1
  outer loop
   vertex 0.1625 0.8125 4
   vertex 0.4875 0.8125 4
   vertex 0.2 1 4
  endloop
 endfacet
 facet normal -0 0 1
  outer loop
   vertex 0.6 1 4
   vertex 0.2 1 4
   vertex 0.4875 0.8125 4
  endloop
 endfacet
 facet normal -0 0 1
  outer loop
   vertex 0.4375 0.4375 4
   vertex 0.2625 0.4375 4
   vertex 0.25 0.25 4
  endloop
 endfacet
 facet normal 0 0 1
  outer loop
   vertex 0.15 0.25 4
   vertex 0.25 0.25 4
   vertex 0.2625 0.4375 4
  endloop
 endfacet
 facet normal 0 0 1
  outer loop
   vertex 0.2625 0.4375 4
   vertex 0.4375 0.4375 4
   vertex 0.375 0.625 4
  endloop
 endfacet
 facet normal -0 0 1
  outer loop
   vertex 0.625 0.625 4
   vertex 0.375 0.625 4
   vertex 0.4375 0.4375 4
  endloop
 endfacet
 facet normal 0 0 1
  outer loop
   vertex 0.375 0.625 4
   vertex 0.625 0.625 4
   vertex 0.4875 0.8125 4
  endloop
 endfacet
 facet normal -0 0 1
  outer loop
   vertex 0.8125 0.8125 4
   vertex 0.4875 0.8125 4
   vertex 0.625 0.625 4
  endloop
 endfacet
 facet normal 0 0 1
  outer loop
   vertex 0.4875 0.8125 4
   vertex 0.8125 0.8125 4
   vertex 0.6 1 4
  endloop
 endfacet
 facet normal -0 0 1
  outer loop
   vertex 1 1 4
   vertex 0.6 1 4
   vertex 0.8125 0.8125 4
  endloop
 endfacet
 facet normal -0 0 1
  outer loop
   vertex -0.8125 -0.4875 4
   vertex -1 -0.6 4
   vertex -0.8125 -0.8125 4
  endloop
 endfacet
 facet normal 0 0 1
  outer loop
   vertex -1 -1 4
   vertex -0.8125 -0.8125 4
   vertex -1 -0.6 4
  endloop
 endfacet
 facet normal -0 0 1
  outer loop
   vertex -0.8125 -0.1625 4
   vertex -1 -0.2 4
   vertex -0.8125 -0.4875 4
  endloop
 endfacet
 facet normal 0 0 1
  outer loop
   vertex -1 -0.6 4
   vertex -0.8125 -0.4875 4
   vertex -1 -0.2 4
  endloop
 endfacet
 facet normal 0 0 1
  outer loop
   vertex -1 -0.2 4
   vertex -0.8125 -0.1625 4
   vertex -1 0.2 4
  endloop
 endfacet
 facet normal -0 0 1
  outer loop
   vertex -0.8125 0.1625 4
   vertex -1 0.2 4
   vertex -0.8125 -0.1625 4
  endloop
 endfacet
 facet normal 0 0 1
  outer loop
   vertex -0.8125 0.1625 4
   vertex -0.8125 0.4875 4
   vertex -1 0.2 4
  endloop
 endfacet
 facet normal 0 0 1
  outer loop
   vertex -1 0.6 4
   vertex -1 0.2 4
   vertex -0.8125 0.4875 4
  endloop
 endfacet
 facet normal 0 0 1
  outer loop
   vertex -0.8125 0.4875 4
   vertex -0.8125 0.8125 4
   vertex -1 0.6 4
  endloop
 endfacet
 facet normal 0 0 1
  outer loop
   vertex -1 1 4
   vertex -1 0.6 4
   vertex -0.8125 0.8125 4
  endloop
 endfacet
 facet normal -0 0 1
  outer loop
   vertex -0.625 -0.375 4
   vertex -0.8125 -0.4875 4
   vertex -0.625 -0.625 4
  endloop
 endfacet
 facet normal 0 0 1
  outer loop
   vertex -0.8125 -0.8125 4
   vertex -0.625 -0.625 4
   vertex -0.8125 -0.4875 4
  endloop
 endfacet
 facet normal -0 0 1
  outer loop
   vertex -0.625 -0.125 4
   vertex -0.8125 -0.1625 4
   vertex -0.625 -0.375 4
  endloop
 endfacet
 facet normal 0 0 1
  outer loop
   vertex -0.8125 -0.1625 4
   vertex -0.8125 -0.4875 4
   vertex -0.625 -0.375 4
  endloop
 endfacet
 facet normal 0 0 1
  outer loop
   vertex -0.8125 -0.1625 4
   vertex -0.625 -0.125 4
   vertex -0.8125 0.1625 4
  endloop
 endfacet
 facet normal -0 0 1
  outer loop
   vertex -0.625 0.125 4
   vertex -0.8125 0.1625 4
   vertex -0.625 -0.125 4
  endloop
 endfacet
 facet normal 0 0 1
  outer loop
   vertex -0.625 0.125 4
   vertex -0.625 0.375 4
   vertex -0.8125 0.1625 4
  endloop
 endfacet
 facet normal 0 0 1
  outer loop
   vertex -0.8125 0.1625 4
   vertex -0.625 0.375 4
   vertex -0.8125 0.4875 4
  endloop
 endfacet
 facet normal 0 0 1
  outer loop
   vertex -0.625 0.375 4
   vertex -0.625 0.625 4
   vertex -0.8125 0.4875 4
  endloop
 endfacet
 facet normal 0 0 1
  outer loop
   vertex -0.8125 0.8125 4
   vertex -0.8125 0.4875 4
   vertex -0.625 0.625 4
  endloop
 endfacet
 facet normal -0 0 1
  outer loop
   vertex -0.4375 -0.2625 4
   vertex -0.625 -0.375 4
   vertex -0.4375 -0.4375 4
  endloop
 endfacet
 facet normal 0 0 1
  outer loop
   vertex -0.625 -0.625 4
   vertex -0.4375 -0.4375 4
   vertex -0.625 -0.375 4
  endloop
 endfacet
 facet normal 0 0 1
  outer loop
   vertex -0.625 -0.375 4
   vertex -0.4375 -0.2625 4
   vertex -0.625 -0.125 4
  endloop
 endfacet
 facet normal -0 0 1
  outer loop
   vertex -0.4375 -0.0875 4
   vertex -0.625 -0.125 4
   vertex -0.4375 -0.2625 4
  endloop
 endfacet
 facet normal 0 0 1
  outer loop
   vertex -0.625 -0.125 4
   vertex -0.4375 -0.0875 4
   vertex -0.625 0.125 4
  endloop
 endfacet
 facet normal -0 0 1
  outer loop
   vertex -0.4375 0.0875 4
   vertex -0.625 0.125 4
   vertex -0.4375 -0.0875 4
  endloop
 endfacet
 facet normal 0 0 1
  outer loop
   vertex -0.625 0.375 4
   vertex -0.625 0.125 4
   vertex -0.4375 0.2625 4
  endloop
 endfacet
 facet normal 0 0 1
  outer loop
   vertex -0.4375 0.0875 4
   vertex -0.4375 0.2625 4
   vertex -0.625 0.125 4
  endloop
 endfacet
 facet normal 0 0 1
  outer loop
   vertex -0.4375 0.2625 4
   vertex -0.4375 0.4375 4
   vertex -0.625 0.375 4
  endloop
 endfacet
 facet normal 0 0 1
  outer loop
   vertex -0.625 0.625 4
   vertex -0.625 0.375 4
   vertex -0.4375 0.4375 4
  endloop
 endfacet
 facet normal 0 0 1
  outer loop
   vertex -0.4375 -0.4375 4
   vertex -0.25 -0.25 4
   vertex -0.4375 -0.2625 4
  endloop
 endfacet
 facet normal -0 0 1
  outer loop
   vertex -0.25 -0.15 4
   vertex -0.4375 -0.2625 4
   vertex -0.25 -0.25 4
  endloop
 endfacet
 facet normal 0 0 1
  outer loop
   vertex -0.4375 -0.2625 4
   vertex -0.25 -0.15 4
   vertex -0.4375 -0.0875 4
  endloop
 endfacet
 facet normal -0 0 1
  outer loop
   vertex -0.25 -0.05 4
   vertex -0.4375 -0.0875 4
   vertex -0.25 -0.15 4
  endloop
 endfacet
 facet normal 0 0 1
  outer loop
   vertex -0.4375 -0.0875 4
   vertex -0.25 -0.05 4
   vertex -0.4375 0.0875 4
  endloop
 endfacet
 facet normal -0 0 1
  outer loop
   vertex -0.25 0.05 4
   vertex -0.4375 0.0875 4
   vertex -0.25 -0.05 4
  endloop
 endfacet
 facet normal 0 0 1
  outer loop
   vertex -0.4375 0.2625 4
   vertex -0.4375 0.0875 4
   vertex -0.25 0.15 4
  endloop
 endfacet
 facet normal 0 0 1
  outer loop
   vertex -0.25 0.05 4
   vertex -0.25 0.15 4
   vertex -0.4375 0.0875 4
  endloop
 endfacet
 facet normal 0 0 1
  outer loop
   vertex -0.4375 0.4375 4
   vertex -0.4375 0.2625 4
   vertex -0.25 0.25 4
  endloop
 endfacet
 facet normal 0 0 1
  outer loop
   vertex -0.25 0.15 4
   vertex -0.25 0.25 4
   vertex -0.4375 0.2625 4
  endloop
 endfacet
 facet normal 0 0 1
  outer loop
   vertex -0.25 -0.25 4
   vertex -0.15 -0.25 4
   vertex -0.25 -0.15 4
  endloop
 endfacet
 facet normal -0 0 1
  outer loop
   vertex -0.15 -0.15 4
   vertex -0.25 -0.15 4
   vertex -0.15 -0.25 4
  endloop
 endfacet
 facet normal 0 0 1
  outer loop
   vertex -0.25 -0.15 4
   vertex -0.15 -0.15 4
   vertex -0.25 -0.05 4
  endloop
 endfacet
 facet normal -0 0 1
  outer loop
   vertex -0.15 -0.05 4
   vertex -0.25 -0.05 4
   vertex -0.15 -0.15 4
  endloop
 endfacet
 facet normal 0 0 1
  outer loop
   vertex -0.25 -0.05 4
   vertex -0.15 -0.05 4
   vertex -0.25 0.05 4
  endloop
 endfacet
 facet normal -0 0 1
  outer loop
   vertex -0.15 0.05 4
   vertex -0.25 0.05 4
   vertex -0.15 -0.05 4
  endloop
 endfacet
 facet normal 0 0 1
  outer loop
   vertex -0.25 0.05 4
   vertex -0.15 0.05 4
   vertex -0.25 0.15 4
  endloop
 endfacet
 facet normal -0 0 1
  outer loop
   vertex -0.15 0.15 4
   vertex -0.25 0.15 4
   vertex -0.15 0.05 4
  endloop
 endfacet
 facet normal 0 0 1
  outer loop
   vertex -0.25 0.15 4
   vertex -0.15 0.15 4
   vertex -0.25 0.25 4
  endloop
 endfacet
 facet normal -0 0 1
  outer loop
   vertex -0.15 0.25 4
   vertex -0.25 0.25 4
   vertex -0.15 0.15 4
  endloop
 endfacet
 facet normal 0 0 1
  outer loop
   vertex -0.15 -0.25 4
   vertex -0.05 -0.25 4
   vertex -0.15 -0.15 4
  endloop
 endfacet
 facet normal -0 0 1
  outer loop
   vertex -0.05 -0.15 4
   vertex -0.15 -0.15 4
   vertex -0.05 -0.25 4
  endloop
 endfacet
 facet normal 0 0 1
  outer loop
   vertex -0.15 -0.15 4
   vertex -0.05 -0.15 4
   vertex -0.15 -0.05 4
  endloop
 endfacet
 facet normal -0 0 1
  outer loop
   vertex -0.05 -0.05 4
   vertex -0.15 -0.05 4
   vertex -0.05 -0.15 4
  endloop
 endfacet
 facet normal 0 0 1
  outer loop
   vertex -0.15 -0.05 4
   vertex -0.05 -0.05 4
   vertex -0.15 0.05 4
  endloop
 endfacet
 facet normal -0 0 1
  outer loop
   vertex -0.05 0.05 4
   vertex -0.15 0.05 4
   vertex -0.05 -0.05 4
  endloop
 endfacet
 facet normal 0 0 1
  outer loop
   vertex -0.15 0.05 4
   vertex -0.05 0.05 4
   vertex -0.15 0.15 4
  endloop
 endfacet
 facet normal -0 0 1
  outer loop
   vertex -0.05 0.15 4
   vertex -0.15 0.15 4
   vertex -0.05 0.05 4
  endloop
 endfacet
 facet normal 0 0 1
  outer loop
   vertex -0.15 0.15 4
   vertex -0.05 0.15 4
   vertex -0.15 0.25 4
  endloop
 endfacet
 facet normal -0 0 1
  outer loop
   vertex -0.05 0.25 4
   vertex -0.15 0.25 4
   vertex -0.05 0.15 4
  endloop
 endfacet
 facet normal 0 0 1
  outer loop
   vertex -0.05 -0.25 4
   vertex 0.05 -0.25 4
   vertex -0.05 -0.15 4
  endloop
 endfacet
 facet normal -0 0 1
  outer loop
   vertex 0.05 -0.15 4
   vertex -0.05 -0.15 4
   vertex 0.05 -0.25 4
  endloop
 endfacet
 facet normal 0 0 1
  outer loop
   vertex -0.05 -0.15 4
   vertex 0.05 -0.15 4
   vertex -0.05 -0.05 4
  endloop
 endfacet
 facet normal -0 0 1
  outer loop
   vertex 0.05 -0.05 4
   vertex -0.05 -0.05 4
   vertex 0.05 -0.15 4
  endloop
 endfacet
 facet normal 0 0 1
  outer loop
   vertex -0.05 -0.05 4
   vertex 0.05 -0.05 4
   vertex -0.05 0.05 4
  endloop
 endfacet
 facet normal -0 0 1
  outer loop
   vertex 0.05 0.05 4
   vertex -0.05 0.05 4
   vertex 0.05 -0.05 4
  endloop
 endfacet
 facet normal 0 0 1
  outer loop
   vertex -0.05 0.05 4
   vertex 0.05 0.05 4
   vertex -0.05 0.15 4
  endloop
 endfacet
 facet normal -0 0 1
  outer loop
   vertex 0.05 0.15 4
   vertex -0.05 0.15 4
   vertex 0.05 0.05 4
  endloop
 endfacet
 facet normal 0 0 1
  outer loop
   vertex -0.05 0.15 4
   vertex 0.05 0.15 4
   vertex -0.05 0.25 4
  endloop
 endfacet
 facet normal -0 0 1
  outer loop
   vertex 0.05 0.25 4
   vertex -0.05 0.25 4
   vertex 0.05 0.15 4
  endloop
 endfacet
 facet normal 0 0 1
  outer loop
   vertex 0.05 -0.25 4
   vertex 0.15 -0.25 4
   vertex 0.05 -0.15 4
  endloop
 endfacet
 facet normal -0 0 1
  outer loop
   vertex 0.15 -0.15 4
   vertex 0.05 -0.15 4
   vertex 0.15 -0.25 4
  endloop
 endfacet
 facet normal 0 0 1
  outer loop
   vertex 0.05 -0.15 4
   vertex 0.15 -0.15 4
   vertex 0.05 -0.05 4
  endloop
 endfacet
 facet normal -0 0 1
  outer loop
   vertex 0.15 -0.05 4
   vertex 0.05 -0.05 4
   vertex 0.15 -0.15 4
  endloop
 endfacet
 facet normal 0 0 1
  outer loop
   vertex 0.05 -0.05 4
   vertex 0.15 -0.05 4
   vertex 0.05 0.05 4
  endloop
 endfacet
 facet normal -0 0 1
  outer loop
   vertex 0.15 0.05 4
   vertex 0.05 0.05 4
   vertex 0.15 -0.05 4
  endloop
 endfacet
 facet normal 0 0 1
  outer loop
   vertex 0.05 0.05 4
   vertex 0.15 0.05 4
   vertex 0.05 0.15 4
  endloop
 endfacet
 facet normal -0 0 1
  outer loop
   vertex 0.15 0.15 4
   vertex 0.05 0.15 4
   vertex 0.15 0.05 4
  endloop
 endfacet
 facet normal 0 0 1
  outer loop
   vertex 0.05 0.15 4
   vertex 0.15 0.15 4
   vertex 0.05 0.25 4
  endloop
 endfacet
 facet normal -0 0 1
  outer loop
   vertex 0.15 0.25 4
   vertex 0.05 0.25 4
   vertex 0.15 0.15 4
  endloop
 endfacet
 facet normal 0 0 1
  outer loop
   vertex 0.15 -0.25 4
   vertex 0.25 -0.25 4
   vertex 0.15 -0.15 4
  endloop
 endfacet
 facet normal -0 0 1
  outer loop
   vertex 0.25 -0.15 4
   vertex 0.15 -0.15 4
   vertex 0.25 -0.25 4
  endloop
 endfacet
 facet normal 0 0 1
  outer loop
   vertex 0.15 -0.15 4
   vertex 0.25 -0.15 4
   vertex 0.15 -0.05 4
  endloop
 endfacet
 facet normal -0 0 1
  outer loop
   vertex 0.25 -0.05 4
   vertex 0.15 -0.05 4
   vertex 0.25 -0.15 4
  endloop
 endfacet
 facet normal 0 0 1
  outer loop
   vertex 0.15 -0.05 4
   vertex 0.25 -0.05 4
   vertex 0.15 0.05 4
  endloop
 endfacet
 facet normal -0 0 1
  outer loop
   vertex 0.25 0.05 4
   vertex 0.15 0.05 4
   vertex 0.25 -0.05 4
  endloop
 endfacet
 facet normal 0 0 1
  outer loop
   vertex 0.15 0.05 4
   vertex 0.25 0.05 4
   vertex 0.15 0.15 4
  endloop
 endfacet
 facet normal -0 0 1
  outer loop
   vertex 0.25 0.15 4
   vertex 0.15 0.15 4
   vertex 0.25 0.05 4
  endloop
 endfacet
 facet normal 0 0 1
  outer loop
   vertex 0.15 0.15 4
   vertex 0.25 0.15 4
   vertex 0.15 0.25 4
  endloop
 endfacet
 facet normal -0 0 1
  outer loop
   vertex 0.25 0.25 4
   vertex 0.15 0.25 4
   vertex 0.25 0.15 4
  endloop
 endfacet
endsolid outlet
solid outlet
 facet normal -0 0 1
  outer loop
   vertex -0.4875 -0.8125 4
   vertex -0.8125 -0.8125 4
   vertex -0.6 -1 4
  endloop
 endfacet
 facet normal 0 0 1
  outer loop
   vertex -1 -1 4
   vertex -0.6 -1 4
   vertex -0.8125 -0.8125 4
  endloop
 endfacet
 facet normal -0 0 1
  outer loop
   vertex -0.375 -0.625 4
   vertex -0.625 -0.625 4
   vertex -0.4875 -0.8125 4
  endloop
 endfacet
 facet normal 0 0 1
  outer loop
   vertex -0.8125 -0.8125 4
   vertex -0.4875 -0.8125 4
   vertex -0.625 -0.625 4
  endloop
 endfacet
 facet normal -0 0 1
  outer loop
   vertex -0.2625 -0.4375 4
   vertex -0.4375 -0.4375 4
   vertex -0.375 -0.625 4
  endloop
 endfacet
 facet normal 0 0 1
  outer loop
   vertex -0.625 -0.625 4
   vertex -0.375 -0.625 4
   vertex -0.4375 -0.4375 4
  endloop
 endfacet
 facet normal 0 0 1
  outer loop
   vertex -0.4375 -0.4375 4
   vertex -0.2625 -0.4375 4
   vertex -0.25 -0.25 4
  endloop
 endfacet
 facet normal -0 0 1
  outer loop
   vertex -0.15 -0.25 4
   vertex -0.25 -0.25 4
   vertex -0.2625 -0.4375 4
  endloop
 endfacet
 facet normal -0 0 1
  outer loop
   vertex -0.1625 -0.8125 4
   vertex -0.4875 -0.8125 4
   vertex -0.2 -1 4
  endloop
 endfacet
 facet normal 0 0 1
  outer loop
   vertex -0.6 -1 4
   vertex -0.2 -1 4
   vertex -0.4875 -0.8125 4
  endloop
 endfacet
 facet normal -0 0 1
  outer loop
   vertex -0.125 -0.625 4
   vertex -0.375 -0.625 4
   vertex -0.1625 -0.8125 4
  endloop
 endfacet
 facet normal 0 0 1
  outer loop
   vertex -0.1625 -0.8125 4
   vertex -0.375 -0.625 4
   vertex -0.4875 -0.8125 4
  endloop
 endfacet
 facet normal 0 0 1
  outer loop
   vertex -0.375 -0.625 4
   vertex -0.125 -0.625 4
   vertex -0.2625 -0.4375 4
  endloop
 endfacet
 facet normal -0 0 1
  outer loop
   vertex -0.0875 -0.4375 4
   vertex -0.2625 -0.4375 4
   vertex -0.125 -0.625 4
  endloop
 endfacet
 facet normal 0 0 1
  outer loop
   vertex -0.2625 -0.4375 4
   vertex -0.0875 -0.4375 4
   vertex -0.15 -0.25 4
  endloop
 endfacet
 facet normal -0 0 1
  outer loop
   vertex -0.05 -0.25 4
   vertex -0.15 -0.25 4
   vertex -0.0875 -0.4375 4
  endloop
 endfacet
 facet normal 0 0 1
  outer loop
   vertex -0.2 -1 4
   vertex 0.2 -1 4
   vertex -0.1625 -0.8125 4
  endloop
 endfacet
 facet normal -0 0 1
  outer loop
   vertex 0.1625 -0.8125 4
   vertex -0.1625 -0.8125 4
   vertex 0.2 -1 4
  endloop
 endfacet
 facet normal 0 0 1
  outer loop
   vertex -0.1625 -0.8125 4
   vertex 0.1625 -0.8125 4
   vertex -0.125 -0.625 4
  endloop
 endfacet
 facet normal -0 0 1
  outer loop
   vertex 0.125 -0.625 4
   vertex -0.125 -0.625 4
   vertex 0.1625 -0.8125 4
  endloop
 endfacet
 facet normal 0 0 1
  outer loop
   vertex -0.125 -0.625 4
   vertex 0.125 -0.625 4
   vertex -0.0875 -0.4375 4
  endloop
 endfacet
 facet normal -0 0 1
  outer loop
   vertex 0.0875 -0.4375 4
   vertex -0.0875 -0.4375 4
   vertex 0.125 -0.625 4
  endloop
 endfacet
 facet normal 0 0 1
  outer loop
   vertex -0.0875 -0.4375 4
   vertex 0.0875 -0.4375 4
   vertex -0.05 -0.25 4
  endloop
 endfacet
 facet normal -0 0 1
  outer loop
   vertex 0.05 -0.25 4
   vertex -0.05 -0.25 4
   vertex 0.0875 -0.4375 4
  endloop
 endfacet
 facet normal 0 0 1
  outer loop
   vertex 0.1625 -0.8125 4
   vertex 0.2 -1 4
   vertex 0.4875 -0.8125 4
  endloop
 endfacet
 facet normal 0 0 1
  outer loop
   vertex 0.6 -1 4
   vertex 0.4875 -0.8125 4
   vertex 0.2 -1 4
  endloop
 endfacet
 facet normal 0 0 1
  outer loop
   vertex 0.125 -0.625 4
   vertex 0.1625 -0.8125 4
   vertex 0.375 -0.625 4
  endloop
 endfacet
 facet normal 0 -0 1
  outer loop
   vertex 0.1625 -0.8125 4
   vertex 0.4875 -0.8125 4
   vertex 0.375 -0.625 4
  endloop
 endfacet
 facet normal 0 0 1
  outer loop
   vertex 0.375 -0.625 4
   vertex 0.2625 -0.4375 4
   vertex 0.125 -0.625 4
  endloop
 endfacet
 facet normal 0 0 1
  outer loop
   vertex 0.0875 -0.4375 4
   vertex 0.125 -0.625 4
   vertex 0.2625 -0.4375 4
  endloop
 endfacet
 facet normal 0 0 1
  outer loop
   vertex 0.2625 -0.4375 4
   vertex 0.15 -0.25 4
   vertex 0.0875 -0.4375 4
  endloop
 endfacet
 facet normal 0 0 1
  outer loop
   vertex 0.05 -0.25 4
   vertex 0.0875 -0.4375 4
   vertex 0.15 -0.25 4
  endloop
 endfacet
 facet normal 0 0 1
  outer loop
   vertex 0.4875 -0.8125 4
   vertex 0.6 -1 4
   vertex 0.8125 -0.8125 4
  endloop
 endfacet
 facet normal 0 0 1
  outer loop
   vertex 1 -1 4
   vertex 0.8125 -0.8125 4
   vertex 0.6 -1 4
  endloop
 endfacet
 facet normal 0 0 1
  outer loop
   vertex 0.375 -0.625 4
   vertex 0.4875 -0.8125 4
   vertex 0.625 -0.625 4
  endloop
 endfacet
 facet normal 0 0 1
  outer loop
   vertex 0.8125 -0.8125 4
   vertex 0.625 -0.625 4
   vertex 0.4875 -0.8125 4
  endloop
 endfacet
 facet normal 0 0 1
  outer loop
   vertex 0.2625 -0.4375 4
   vertex 0.375 -0.625 4
   vertex 0.4375 -0.4375 4
  endloop
 endfacet
 facet normal 0 0 1
  outer loop
   vertex 0.625 -0.625 4
   vertex 0.4375 -0.4375 4
   vertex 0.375 -0.625 4
  endloop
 endfacet
 facet normal 0 0 1
  outer loop
   vertex 0.4375 -0.4375 4
   vertex 0.25 -0.25 4
   vertex 0.2625 -0.4375 4
  endloop
 endfacet
 facet normal 0 0 1
  outer loop
   vertex 0.15 -0.25 4
   vertex 0.2625 -0.4375 4
   vertex 0.25 -0.25 4
  endloop
 endfacet
 facet normal 0 0 1
  outer loop
   vertex 0.4375 -0.4375 4
   vertex 0.4375 -0.2625 4
   vertex 0.25 -0.25 4
  endloop
 endfacet
 facet normal 0 0 1
  outer loop
   vertex 0.25 -0.15 4
   vertex 0.25 -0.25 4
   vertex 0.4375 -0.2625 4
  endloop
 endfacet
 facet normal 0 0 1
  outer loop
   vertex 0.4375 -0.2625 4
   vertex 0.4375 -0.0875 4
   vertex 0.25 -0.15 4
  endloop
 endfacet
 facet normal 0 0 1
  outer loop
   vertex 0.25 -0.05 4
   vertex 0.25 -0.15 4
   vertex 0.4375 -0.0875 4
  endloop
 endfacet
 facet normal 0 0 1
  outer loop
   vertex 0.4375 -0.0875 4
   vertex 0.4375 0.0875 4
   vertex 0.25 -0.05 4
  endloop
 endfacet
 facet normal 0 0 1
  outer loop
   vertex 0.25 0.05 4
   vertex 0.25 -0.05 4
   vertex 0.4375 0.0875 4
  endloop
 endfacet
 facet normal -0 0 1
  outer loop
   vertex 0.4375 0.2625 4
   vertex 0.25 0.15 4
   vertex 0.4375 0.0875 4
  endloop
 endfacet
 facet normal 0 0 1
  outer loop
   vertex 0.25 0.05 4
   vertex 0.4375 0.0875 4
   vertex 0.25 0.15 4
  endloop
 endfacet
 facet normal -0 0 1
  outer loop
   vertex 0.4375 0.4375 4
   vertex 0.25 0.25 4
   vertex 0.4375 0.2625 4
  endloop
 endfacet
 facet normal 0 0 1
  outer loop
   vertex 0.25 0.15 4
   vertex 0.4375 0.2625 4
   vertex 0.25 0.25 4
  endloop
 endfacet
 facet normal 0 0 1
  outer loop
   vertex 0.4375 -0.2625 4
   vertex 0.4375 -0.4375 4
   vertex 0.625 -0.375 4
  endloop
 endfacet
 facet normal 0 0 1
  outer loop
   vertex 0.625 -0.625 4
   vertex 0.625 -0.375 4
   vertex 0.4375 -0.4375 4
  endloop
 endfacet
 facet normal 0 0 1
  outer loop
   vertex 0.625 -0.375 4
   vertex 0.625 -0.125 4
   vertex 0.4375 -0.2625 4
  endloop
 endfacet
 facet normal 0 0 1
  outer loop
   vertex 0.4375 -0.0875 4
   vertex 0.4375 -0.2625 4
   vertex 0.625 -0.125 4
  endloop
 endfacet
 facet normal 0 0 1
  outer loop
   vertex 0.625 -0.125 4
   vertex 0.625 0.125 4
   vertex 0.4375 -0.0875 4
  endloop
 endfacet
 facet normal 0 0 1
  outer loop
   vertex 0.4375 0.0875 4
   vertex 0.4375 -0.0875 4
   vertex 0.625 0.125 4
  endloop
 endfacet
 facet normal -0 0 1
  outer loop
   vertex 0.625 0.375 4
   vertex 0.4375 0.2625 4
   vertex 0.625 0.125 4
  endloop
 endfacet
 facet normal 0 0 1
  outer loop
   vertex 0.4375 0.0875 4
   vertex 0.625 0.125 4
   vertex 0.4375 0.2625 4
  endloop
 endfacet
 facet normal 0 0 1
  outer loop
   vertex 0.4375 0.2625 4
   vertex 0.625 0.375 4
   vertex 0.4375 0.4375 4
  endloop
 endfacet
 facet normal -0 0 1
  outer loop
   vertex 0.625 0.625 4
   vertex 0.4375 0.4375 4
   vertex 0.625 0.375 4
  endloop
 endfacet
 facet normal 0 0 1
  outer loop
   vertex 0.625 -0.375 4
   vertex 0.625 -0.625 4
   vertex 0.8125 -0.4875 4
  endloop
 endfacet
 facet normal 0 0 1
  outer loop
   vertex 0.8125 -0.8125 4
   vertex 0.8125 -0.4875 4
   vertex 0.625 -0.625 4
  endloop
 endfacet
 facet normal 0 0 1
  outer loop
   vertex 0.625 -0.125 4
   vertex 0.625 -0.375 4
   vertex 0.8125 -0.1625 4
  endloop
 endfacet
 facet normal 0 0 1
  outer loop
   vertex 0.8125 -0.1625 4
   vertex 0.625 -0.375 4
   vertex 0.8125 -0.4875 4
  endloop
 endfacet
 facet normal 0 0 1
  outer loop
   vertex 0.8125 -0.1625 4
   vertex 0.8125 0.1625 4
   vertex 0.625 -0.125 4
  endloop
 endfacet
 facet normal 0 0 1
  outer loop
   vertex 0.625 0.125 4
   vertex 0.625 -0.125 4
   vertex 0.8125 0.1625 4
  endloop
 endfacet
 facet normal 0 0 1
  outer loop
   vertex 0.625 0.125 4
   vertex 0.8125 0.1625 4
   vertex 0.625 0.375 4
  endloop
 endfacet
 facet normal 0 0 1
  outer loop
   vertex 0.8125 0.1625 4
   vertex 0.8125 0.4875 4
   vertex 0.625 0.375 4
  endloop
 endfacet
 facet normal 0 0 1
  outer loop
   vertex 0.625 0.375 4
   vertex 0.8125 0.4875 4
   vertex 0.625 0.625 4
  endloop
 endfacet
 facet normal -0 0 1
  outer loop
   vertex 0.8125 0.8125 4
   vertex 0.625 0.625 4
   vertex 0.8125 0.4875 4
  endloop
 endfacet
 facet normal 0 0 1
  outer loop
   vertex 0.8125 -0.4875 4
   vertex 0.8125 -0.8125 4
   vertex 1 -0.6 4
  endloop
 endfacet
 facet normal 0 0 1
  outer loop
   vertex 1 -1 4
   vertex 1 -0.6 4
   vertex 0.8125 -0.8125 4
  endloop
 endfacet
 facet normal 0 0 1
  outer loop
   vertex 0.8125 -0.1625 4
   vertex 0.8125 -0.4875 4
   vertex 1 -0.2 4
  endloop
 endfacet
 facet normal 0 0 1
  outer loop
   vertex 1 -0.6 4
   vertex 1 -0.2 4
   vertex 0.8125 -0.4875 4
  endloop
 endfacet
 facet normal 0 0 1
  outer loop
   vertex 1 -0.2 4
   vertex 1 0.2 4
   vertex 0.8125 -0.1625 4
  endloop
 endfacet
 facet normal 0 0 1
  outer loop
   vertex 0.8125 0.1625 4
   vertex 0.8125 -0.1625 4
   vertex 1 0.2 4
  endloop
 endfacet
 facet normal 0 0 1
  outer loop
   vertex 0.8125 0.1625 4
   vertex 1 0.2 4
   vertex 0.8125 0.4875 4
  endloop
 endfacet
 facet normal -0 0 1
  outer loop
   vertex 1 0.6 4
   vertex 0.8125 0.4875 4
   vertex 1 0.2 4
  endloop
 endfacet
 facet normal 0 0 1
  outer loop
   vertex 0.8125 0.4875 4
   vertex 1 0.6 4
   vertex 0.8125 0.8125 4
  endloop
 endfacet
 facet normal -0 0 1
  outer loop
   vertex 1 1 4
   vertex 0.8125 0.8125 4
   vertex 1 0.6 4
  endloop
 endfacet
 facet normal 0 0 1
  outer loop
   vertex -0.4375 0.4375 4
   vertex -0.25 0.25 4
   vertex -0.2625 0.4375 4
  endloop
 endfacet
 facet normal 0 0 1
  outer loop
   vertex -0.15 0.25 4
   vertex -0.2625 0.4375 4
   vertex -0.25 0.25 4
  endloop
 endfacet
 facet normal 0 0 1
  outer loop
   vertex -0.2625 0.4375 4
   vertex -0.375 0.625 4
   vertex -0.4375 0.4375 4
  endloop
 endfacet
 facet normal 0 0 1
  outer loop
   vertex -0.625 0.625 4
   vertex -0.4375 0.4375 4
   vertex -0.375 0.625 4
  endloop
 endfacet
 facet normal 0 0 1
  outer loop
   vertex -0.375 0.625 4
   vertex -0.4875 0.8125 4
   vertex -0.625 0.625 4
  endloop
 endfacet
 facet normal 0 0 1
  outer loop
   vertex -0.8125 0.8125 4
   vertex -0.625 0.625 4
   vertex -0.4875 0.8125 4
  endloop
 endfacet
 facet normal 0 0 1
  outer loop
   vertex -0.4875 0.8125 4
   vertex -0.6 1 4
   vertex -0.8125 0.8125 4
  endloop
 endfacet
 facet normal 0 0 1
  outer loop
   vertex -1 1 4
   vertex -0.8125 0.8125 4
   vertex -0.6 1 4
  endloop
 endfacet
 facet normal 0 0 1
  outer loop
   vertex -0.2625 0.4375 4
   vertex -0.15 0.25 4
   vertex -0.0875 0.4375 4
  endloop
 endfacet
 facet normal 0 0 1
  outer loop
   vertex -0.05 0.25 4
   vertex -0.0875 0.4375 4
   vertex -0.15 0.25 4
  endloop
 endfacet
 facet normal 0 0 1
  outer loop
   vertex -0.375 0.625 4
   vertex -0.2625 0.4375 4
   vertex -0.125 0.625 4
  endloop
 endfacet
 facet normal 0 0 1
  outer loop
   vertex -0.0875 0.4375 4
   vertex -0.125 0.625 4
   vertex -0.2625 0.4375 4
  endloop
 endfacet
 facet normal 0 0 1
  outer loop
   vertex -0.125 0.625 4
   vertex -0.1625 0.8125 4
   vertex -0.375 0.625 4
  endloop
 endfacet
 facet normal -0 0 1
  outer loop
   vertex -0.1625 0.8125 4
   vertex -0.4875 0.8125 4
   vertex -0.375 0.625 4
  endloop
 endfacet
 facet normal 0 0 1
  outer loop
   vertex -0.1625 0.8125 4
   vertex -0.2 1 4
   vertex -0.4875 0.8125 4
  endloop
 endfacet
 facet normal 0 0 1
  outer loop
   vertex -0.6 1 4
   vertex -0.4875 0.8125 4
   vertex -0.2 1 4
  endloop
 endfacet
 facet normal -0 0 1
  outer loop
   vertex 0.0875 0.4375 4
   vertex -0.0875 0.4375 4
   vertex 0.05 0.25 4
  endloop
 endfacet
 facet normal 0 0 1
  outer loop
   vertex -0.05 0.25 4
   vertex 0.05 0.25 4
   vertex -0.0875 0.4375 4
  endloop
 endfacet
 facet normal -0 0 1
  outer loop
   vertex 0.125 0.625 4
   vertex -0.125 0.625 4
   vertex 0.0875 0.4375 4
  endloop
 endfacet
 facet normal 0 0 1
  outer loop
   vertex -0.0875 0.4375 4
   vertex 0.0875 0.4375 4
   vertex -0.125 0.625 4
  endloop
 endfacet
 facet normal -0 0 1
  outer loop
   vertex 0.1625 0.8125 4
   vertex -0.1625 0.8125 4
   vertex 0.125 0.625 4
  endloop
 endfacet
 facet normal 0 0 1
  outer loop
   vertex -0.125 0.625 4
   vertex 0.125 0.625 4
   vertex -0.1625 0.8125 4
  endloop
 endfacet
 facet normal -0 0 1
  outer loop
   vertex 0.2 1 4
   vertex -0.2 1 4
   vertex 0.1625 0.8125 4
  endloop
 endfacet
 facet normal 0 0 1
  outer loop
   vertex -0.1625 0.8125 4
   vertex 0.1625 0.8125 4
   vertex -0.2 1 4
  endloop
 endfacet
 facet normal -0 0 1
  outer loop
   vertex 0.2625 0.4375 4
   vertex 0.0875 0.4375 4
   vertex 0.15 0.25 4
  endloop
 endfacet
 facet normal 0 0 1
  outer loop
   vertex 0.05 0.25 4
   vertex 0.15 0.25 4
   vertex 0.0875 0.4375 4
  endloop
 endfacet
 facet normal -0 0 1
  outer loop
   vertex 0.375 0.625 4
   vertex 0.125 0.625 4
   vertex 0.2625 0.4375 4
  endloop
 endfacet
 facet normal 0 0 1
  outer loop
   vertex 0.0875 0.4375 4
   vertex 0.2625 0.4375 4
   vertex 0.125 0.625 4
  endloop
 endfacet
 facet normal 0 0 1
  outer loop
   vertex 0.125 0.625 4
   vertex 0.375 0.625 4
   vertex 0.1625 0.8125 4
  endloop
 endfacet
 facet normal 0 -0 1
  outer loop
   vertex 0.1625 0.8125 4
   vertex 0.375 0.625 4
   vertex 0.4875 0.8125 4
  endloop
 endfacet
 facet normal 0 0 1
  outer loop
   vertex 0.1625 0.8125 4
   vertex 0.4875 0.8125 4
   vertex 0.2 1 4
  endloop
 endfacet
 facet normal -0 0 1
  outer loop
   vertex 0.6 1 4
   vertex 0.2 1 4
   vertex 0.4875 0.8125 4
  endloop
 endfacet
 facet normal -0 0 1
  outer loop
   vertex 0.4375 0.4375 4
   vertex 0.2625 0.4375 4
   vertex 0.25 0.25 4
  endloop
 endfacet
 facet normal 0 0 1
  outer loop
   vertex 0.15 0.25 4
   vertex 0.25 0.25 4
   vertex 0.2625 0.4375 4
  endloop
 endfacet
 facet normal 0 0 1
  outer loop
   vertex 0.2625 0.4375 4
   vertex 0.4375 0.4375 4
   vertex 0.375 0.625 4
  endloop
 endfacet
 facet normal -0 0 1
  outer loop
   vertex 0.625 0.625 4
   vertex 0.375 0.625 4
   vertex 0.4375 0.4375 4
  endloop
 endfacet
 facet normal 0 0 1
  outer loop
   vertex 0.375 0.625 4
   vertex 0.625 0.625 4
   vertex 0.4875 0.8125 4
  endloop
 endfacet
 facet normal -0 0 1
  outer loop
   vertex 0.8125 0.8125 4
   vertex 0.4875 0.8125 4
   vertex 0.625 0.625 4
  endloop
 endfacet
 facet normal 0 0 1
  outer loop
   vertex 0.4875 0.8125 4
   vertex 0.8125 0.8125 4
   vertex 0.6 1 4
  endloop
 endfacet
 facet normal -0 0 1
  outer loop
   vertex 1 1 4
   vertex 0.6 1 4
   vertex 0.8125 0.8125 4
  endloop
 endfacet
 facet normal -0 0 1
  outer loop
   vertex -0.8125 -0.4875 4
   vertex -1 -0.6 4
   vertex -0.8125 -0.8125 4
  endloop
 endfacet
 facet normal 0 0 1
  outer loop
   vertex -1 -1 4
   vertex -0.8125 -0.8125 4
   vertex -1 -0.6 4
  endloop
 endfacet
 facet normal -0 0 1
  outer loop
   vertex -0.8125 -0.1625 4
   vertex -1 -0.2 4
   vertex -0.8125 -0.4875 4
  endloop
 endfacet
 facet normal 0 0 1
  outer loop
   vertex -1 -0.6 4
   vertex -0.8125 -0.4875 4
   vertex -1 -0.2 4
  endloop
 endfacet
 facet normal 0 0 1
  outer loop
   vertex -1 -0.2 4
   vertex -0.8125 -0.1625 4
   vertex -1 0.2 4
  endloop
 endfacet
 facet normal -0 0 1
  outer loop
   vertex -0.8125 0.1625 4
   vertex -1 0.2 4
   vertex -0.8125 -0.1625 4
  endloop
 endfacet
 facet normal 0 0 1
  outer loop
   vertex -0.8125 0.1625 4
   vertex -0.8125 0.4875 4
   vertex -1 0.2 4
  endloop
 endfacet
 facet normal 0 0 1
  outer loop
   vertex -1 0.6 4
   vertex -1 0.2 4
   vertex -0.8125 0.4875 4
  endloop
 endfacet
 facet normal 0 0 1
  outer loop
   vertex -0.8125 0.4875 4
   vertex -0.8125 0.8125 4
   vertex -1 0.6 4
  endloop
 endfacet
 facet normal 0 0 1
  outer loop
   vertex -1 1 4
   vertex -1 0.6 4
   vertex -0.8125 0.8125 4
  endloop
 endfacet
 facet normal -0 0 1
  outer loop
   vertex -0.625 -0.375 4
   vertex -0.8125 -0.4875 4
   vertex -0.625 -0.625 4
  endloop
 endfacet
 facet normal 0 0 1
  outer loop
   vertex -0.8125 -0.8125 4
   vertex -0.625 -0.625 4
   vertex -0.8125 -0.4875 4
  endloop
 endfacet
 facet normal -0 0 1
  outer loop
   vertex -0.625 -0.125 4
   vertex -0.8125 -0.1625 4
   vertex -0.625 -0.375 4
  endloop
 endfacet
 facet normal 0 0 1
  outer loop
   vertex -0.8125 -0.1625 4
   vertex -0.8125 -0.4875 4
   vertex -0.625 -0.375 4
  endloop
 endfacet
 facet normal 0 0 1
  outer loop
   vertex -0.8125 -0.1625 4
   vertex -0.625 -0.125 4
   vertex -0.8125 0.1625 4
  endloop
 endfacet
 facet normal -0 0 1
  outer loop
   vertex -0.625 0.125 4
   vertex -0.8125 0.1625 4
   vertex -0.625 -0.125 4
  endloop
 endfacet
 facet normal 0 0 1
  outer loop
   vertex -0.625 0.125 4
   vertex -0.625 0.375 4
   vertex -0.8125 0.1625 4
  endloop
 endfacet
 facet normal 0 0 1
  outer loop
   vertex -0.8125 0.1625 4
   vertex -0.625 0.375 4
   vertex -0.8125 0.4875 4
  endloop
 endfacet
 facet normal 0 0 1
  outer loop
   vertex -0.625 0.375 4
   vertex -0.625 0.625 4
   vertex -0.8125 0.4875 4
  endloop
 endfacet
 facet normal 0 0 1
  outer loop
   vertex -0.8125 0.8125 4
   vertex -0.8125 0.4875 4
   vertex -0.625 0.625 4
  endloop
 endfacet
 facet normal -0 0 1
  outer loop
   vertex -0.4375 -0.2625 4
   vertex -0.625 -0.375 4
   vertex -0.4375 -0.4375 4
  endloop
 endfacet
 facet normal 0 0 1
  outer loop
   vertex -0.625 -0.625 4
   vertex -0.4375 -0.4375 4
   vertex -0.625 -0.375 4
  endloop
 endfacet
 facet normal 0 0 1
  outer loop
   vertex -0.625 -0.375 4
   vertex -0.4375 -0.2625 4
   vertex -0.625 -0.125 4
  endloop
 endfacet
 facet normal -0 0 1
  outer loop
   vertex -0.4375 -0.0875 4
   vertex -0.625 -0.125 4
   vertex -0.4375 -0.2625 4
  endloop
 endfacet
 facet normal 0 0 1
  outer loop
   vertex -0.625 -0.125 4
   vertex -0.4375 -0.0875 4
   vertex -0.625 0.125 4
  endloop
 endfacet
 facet normal -0 0 1
  outer loop
   vertex -0.4375 0.0875 4
   vertex -0.625 0.125 4
   vertex -0.4375 -0.0875 4
  endloop
 endfacet
 facet normal 0 0 1
  outer loop
   vertex -0.625 0.375 4
   vertex -0.625 0.125 4
   vertex -0.4375 0.2625 4
  endloop
 endfacet
 facet normal 0 0 1
  outer loop
   vertex -0.4375 0.0875 4
   vertex -0.4375 0.2625 4
   vertex -0.625 0.125 4
  endloop
 endfacet
 facet normal 0 0 1
  outer loop
   vertex -0.4375 0.2625 4
   vertex -0.4375 0.4375 4
   vertex -0.625 0.375 4
  endloop
 endfacet
 facet normal 0 0 1
  outer loop
   vertex -0.625 0.625 4
   vertex -0.625 0.375 4
   vertex -0.4375 0.4375 4
  endloop
 endfacet
 facet normal 0 0 1
  outer loop
   vertex -0.4375 -0.4375 4
   vertex -0.25 -0.25 4
   vertex -0.4375 -0.2625 4
  endloop
 endfacet
 facet normal -0 0 1
  outer loop
   vertex -0.25 -0.15 4
   vertex -0.4375 -0.2625 4
   vertex -0.25 -0.25 4
  endloop
 endfacet
 facet normal 0 0 1
  outer loop
   vertex -0.4375 -0.2625 4
   vertex -0.25 -0.15 4
   vertex -0.4375 -0.0875 4
  endloop
 endfacet
 facet normal -0 0 1
  outer loop
   vertex -0.25 -0.05 4
   vertex -0.4375 -0.0875 4
   vertex -0.25 -0.15 4
  endloop
 endfacet
 facet normal 0 0 1
  outer loop
   vertex -0.4375 -0.0875 4
   vertex -0.25 -0.05 4
   vertex -0.4375 0.0875 4
  endloop
 endfacet
 facet normal -0 0 1
  outer loop
   vertex -0.25 0.05 4
   vertex -0.4375 0.0875 4
   vertex -0.25 -0.05 4
  endloop
 endfacet
 facet normal 0 0 1
  outer loop
   vertex -0.4375 0.2625 4
   vertex -0.4375 0.0875 4
   vertex -0.25 0.15 4
  endloop
 endfacet
 facet normal 0 0 1
  outer loop
   vertex -0.25 0.05 4
   vertex -0.25 0.15 4
   vertex -0.4375 0.0875 4
  endloop
 endfacet
 facet normal 0 0 1
  outer loop
   vertex -0.4375 0.4375 4
   vertex -0.4375 0.2625 4
   vertex -0.25 0.25 4
  endloop
 endfacet
 facet normal 0 0 1
  outer loop
   vertex -0.25 0.15 4
   vertex -0.25 0.25 4
   vertex -0.4375 0.2625 4
  endloop
 endfacet
 facet normal 0 0 1
  outer loop
   vertex -0.25 -0.25 4
   vertex -0.15 -0.25 4
   vertex -0.25 -0.15 4
  endloop
 endfacet
 facet normal -0 0 1
  outer loop
   vertex -0.15 -0.15 4
   vertex -0.25 -0.15 4
   vertex -0.15 -0.25 4
  endloop
 endfacet
 facet normal 0 0 1
  outer loop
   vertex -0.25 -0.15 4
   vertex -0.15 -0.15 4
   vertex -0.25 -0.05 4
  endloop
 endfacet
 facet normal -0 0 1
  outer loop
   vertex -0.15 -0.05 4
   vertex -0.25 -0.05 4
   vertex -0.15 -0.15 4
  endloop
 endfacet
 facet normal 0 0 1
  outer loop
   vertex -0.25 -0.05 4
   vertex -0.15 -0.05 4
   vertex -0.25 0.05 4
  endloop
 endfacet
 facet normal -0 0 1
  outer loop
   vertex -0.15 0.05 4
   vertex -0.25 0.05 4
   vertex -0.15 -0.05 4
  endloop
 endfacet
 facet normal 0 0 1
  outer loop
   vertex -0.25 0.05 4
   vertex -0.15 0.05 4
   vertex -0.25 0.15 4
  endloop
 endfacet
 facet normal -0 0 1
  outer loop
   vertex -0.15 0.15 4
   vertex -0.25 0.15 4
   vertex -0.15 0.05 4
  endloop
 endfacet
 facet normal 0 0 1
  outer loop
   vertex -0.25 0.15 4
   vertex -0.15 0.15 4
   vertex -0.25 0.25 4
  endloop
 endfacet
 facet normal -0 0 1
  outer loop
   vertex -0.15 0.25 4
   vertex -0.25 0.25 4
   vertex -0.15 0.15 4
  endloop
 endfacet
 facet normal 0 0 1
  outer loop
   vertex -0.15 -0.25 4
   vertex -0.05 -0.25 4
   vertex -0.15 -0.15 4
  endloop
 endfacet
 facet normal -0 0 1
  outer loop
   vertex -0.05 -0.15 4
   vertex -0.15 -0.15 4
   vertex -0.05 -0.25 4
  endloop
 endfacet
 facet normal 0 0 1
  outer loop
   vertex -0.15 -0.15 4
   vertex -0.05 -0.15 4
   vertex -0.15 -0.05 4
  endloop
 endfacet
 facet normal -0 0 1
  outer loop
   vertex -0.05 -0.05 4
   vertex -0.15 -0.05 4
   vertex -0.05 -0.15 4
  endloop
 endfacet
 facet normal 0 0 1
  outer loop
   vertex -0.15 -0.05 4
   vertex -0.05 -0.05 4
   vertex -0.15 0.05 4
  endloop
 endfacet
 facet normal -0 0 1
  outer loop
   vertex -0.05 0.05 4
   vertex -0.15 0.05 4
   vertex -0.05 -0.05 4
  endloop
 endfacet
 facet normal 0 0 1
  outer loop
   vertex -0.15 0.05 4
   vertex -0.05 0.05 4
   vertex -0.15 0.15 4
  endloop
 endfacet
 facet normal -0 0 1
  outer loop
   vertex -0.05 0.15 4
   vertex -0.15 0.15 4
   vertex -0.05 0.05 4
  endloop
 endfacet
 facet normal 0 0 1
  outer loop
   vertex -0.15 0.15 4
   vertex -0.05 0.15 4
   vertex -0.15 0.25 4
  endloop
 endfacet
 facet normal -0 0 1
  outer loop
   vertex -0.05 0.25 4
   vertex -0.15 0.25 4
   vertex -0.05 0.15 4
  endloop
 endfacet
 facet normal 0 0 1
  outer loop
   vertex -0.05 -0.25 4
   vertex 0.05 -0.25 4
   vertex -0.05 -0.15 4
  endloop
 endfacet
 facet normal -0 0 1
  outer loop
   vertex 0.05 -0.15 4
   vertex -0.05 -0.15 4
   vertex 0.05 -0.25 4
  endloop
 endfacet
 facet normal 0 0 1
  outer loop
   vertex -0.05 -0.15 4
   vertex 0.05 -0.15 4
   vertex -0.05 -0.05 4
  endloop
 endfacet
 facet normal -0 0 1
  outer loop
   vertex 0.05 -0.05 4
   vertex -0.05 -0.05 4
   vertex 0.05 -0.15 4
  endloop
 endfacet
 facet normal 0 0 1
  outer loop
   vertex -0.05 -0.05 4
   vertex 0.05 -0.05 4
   vertex -0.05 0.05 4
  endloop
 endfacet
 facet normal -0 0 1
  outer loop
   vertex 0.05 0.05 4
   vertex -0.05 0.05 4
   vertex 0.05 -0.05 4
  endloop
 endfacet
 facet normal 0 0 1
  outer loop
   vertex -0.05 0.05 4
   vertex 0.05 0.05 4
   vertex -0.05 0.15 4
  endloop
 endfacet
 facet normal -0 0 1
  outer loop
   vertex 0.05 0.15 4
   vertex -0.05 0.15 4
   vertex 0.05 0.05 4
  endloop
 endfacet
 facet normal 0 0 1
  outer loop
   vertex -0.05 0.15 4
   vertex 0.05 0.15 4
   vertex -0.05 0.25 4
  endloop
 endfacet
 facet normal -0 0 1
  outer loop
   vertex 0.05 0.25 4
   vertex -0.05 0.25 4
   vertex 0.05 0.15 4
  endloop
 endfacet
 facet normal 0 0 1
  outer loop
   vertex 0.05 -0.25 4
   vertex 0.15 -0.25 4
   vertex 0.05 -0.15 4
  endloop
 endfacet
 facet normal -0 0 1
  outer loop
   vertex 0.15 -0.15 4
   vertex 0.05 -0.15 4
   vertex 0.15 -0.25 4
  endloop
 endfacet
 facet normal 0 0 1
  outer loop
   vertex 0.05 -0.15 4
   vertex 0.15 -0.15 4
   vertex 0.05 -0.05 4
  endloop
 endfacet
 facet normal -0 0 1
  outer loop
   vertex 0.15 -0.05 4
   vertex 0.05 -0.05 4
   vertex 0.15 -0.15 4
  endloop
 endfacet
 facet normal 0 0 1
  outer loop
   vertex 0.05 -0.05 4
   vertex 0.15 -0.05 4
   vertex 0.05 0.05 4
  endloop
 endfacet
 facet normal -0 0 1
  outer loop
   vertex 0.15 0.05 4
   vertex 0.05 0.05 4
   vertex 0.15 -0.05 4
  endloop
 endfacet
 facet normal 0 0 1
  outer loop
   vertex 0.05 0.05 4
   vertex 0.15 0.05 4
   vertex 0.05 0.15 4
  endloop
 endfacet
 facet normal -0 0 1
  outer loop
   vertex 0.15 0.15 4
   vertex 0.05 0.15 4
   vertex 0.15 0.05 4
  endloop
 endfacet
 facet normal 0 0 1
  outer loop
   vertex 0.05 0.15 4
   vertex 0.15 0.15 4
   vertex 0.05 0.25 4
  endloop
 endfacet
 facet normal -0 0 1
  outer loop
   vertex 0.15 0.25 4
   vertex 0.05 0.25 4
   vertex 0.15 0.15 4
  endloop
 endfacet
 facet normal 0 0 1
  outer loop
   vertex 0.15 -0.25 4
   vertex 0.25 -0.25 4
   vertex 0.15 -0.15 4
  endloop
 endfacet
 facet normal -0 0 1
  outer loop
   vertex 0.25 -0.15 4
   vertex 0.15 -0.15 4
   vertex 0.25 -0.25 4
  endloop
 endfacet
 facet normal 0 0 1
  outer loop
   vertex 0.15 -0.15 4
   vertex 0.25 -0.15 4
   vertex 0.15 -0.05 4
  endloop
 endfacet
 facet normal -0 0 1
  outer loop
   vertex 0.25 -0.05 4
   vertex 0.15 -0.05 4
   vertex 0.25 -0.15 4
  endloop
 endfacet
 facet normal 0 0 1
  outer loop
   vertex 0.15 -0.05 4
   vertex 0.25 -0.05 4
   vertex 0.15 0.05 4
  endloop
 endfacet
 facet normal -0 0 1
  outer loop
   vertex 0.25 0.05 4
   vertex 0.15 0.05 4
   vertex 0.25 -0.05 4
  endloop
 endfacet
 facet normal 0 0 1
  outer loop
   vertex 0.15 0.05 4
   vertex 0.25 0.05 4
   vertex 0.15 0.15 4
  endloop
 endfacet
 facet normal -0 0 1
  outer loop
   vertex 0.25 0.15 4
   vertex 0.15 0.15 4
   vertex 0.25 0.05 4
  endloop
 endfacet
 facet normal 0 0 1
  outer loop
   vertex 0.15 0.15 4
   vertex 0.25 0.15 4
   vertex 0.15 0.25 4
  endloop
 endfacet
 facet normal -0 0 1
  outer loop
   vertex 0.25 0.25 4
   vertex 0.15 0.25 4
   vertex 0.25 0.15 4
  endloop
 endfacet
endsolid outlet
