solid inlet
 facet normal 0 0 -1
  outer loop
   vertex -0.25 -0.25 -2
   vertex -0.25 -0.15 -2
   vertex -0.15 -0.25 -2
  endloop
 endfacet
 facet normal 0 0 -1
  outer loop
   vertex -0.15 -0.15 -2
   vertex -0.15 -0.25 -2
   vertex -0.25 -0.15 -2
  endloop
 endfacet
 facet normal 0 0 -1
  outer loop
   vertex -0.25 -0.15 -2
   vertex -0.25 -0.05 -2
   vertex -0.15 -0.15 -2
  endloop
 endfacet
 facet normal 0 0 -1
  outer loop
   vertex -0.15 -0.05 -2
   vertex -0.15 -0.15 -2
   vertex -0.25 -0.05 -2
  endloop
 endfacet
 facet normal 0 0 -1
  outer loop
   vertex -0.25 -0.05 -2
   vertex -0.25 0.05 -2
   vertex -0.15 -0.05 -2
  endloop
 endfacet
 facet normal 0 0 -1
  outer loop
   vertex -0.15 0.05 -2
   vertex -0.15 -0.05 -2
   vertex -0.25 0.05 -2
  endloop
 endfacet
 facet normal 0 0 -1
  outer loop
   vertex -0.25 0.05 -2
   vertex -0.25 0.15 -2
   vertex -0.15 0.05 -2
  endloop
 endfacet
 facet normal 0 0 -1
  outer loop
   vertex -0.15 0.15 -2
   vertex -0.15 0.05 -2
   vertex -0.25 0.15 -2
  endloop
 endfacet
 facet normal 0 0 -1
  outer loop
   vertex -0.25 0.15 -2
   vertex -0.25 0.25 -2
   vertex -0.15 0.15 -2
  endloop
 endfacet
 facet normal 0 0 -1
  outer loop
   vertex -0.15 0.25 -2
   vertex -0.15 0.15 -2
   vertex -0.25 0.25 -2
  endloop
 endfacet
 facet normal 0 0 -1
  outer loop
   vertex -0.15 -0.25 -2
   vertex -0.15 -0.15 -2
   vertex -0.05 -0.25 -2
  endloop
 endfacet
 facet normal 0 0 -1
  outer loop
   vertex -0.05 -0.15 -2
   vertex -0.05 -0.25 -2
   vertex -0.15 -0.15 -2
  endloop
 endfacet
 facet normal 0 0 -1
  outer loop
   vertex -0.15 -0.15 -2
   vertex -0.15 -0.05 -2
   vertex -0.05 -0.15 -2
  endloop
 endfacet
 facet normal 0 0 -1
  outer loop
   vertex -0.05 -0.05 -2
   vertex -0.05 -0.15 -2
   vertex -0.15 -0.05 -2
  endloop
 endfacet
 facet normal 0 0 -1
  outer loop
   vertex -0.15 -0.05 -2
   vertex -0.15 0.05 -2
   vertex -0.05 -0.05 -2
  endloop
 endfacet
 facet normal 0 0 -1
  outer loop
   vertex -0.05 0.05 -2
   vertex -0.05 -0.05 -2
   vertex -0.15 0.05 -2
  endloop
 endfacet
 facet normal 0 0 -1
  outer loop
   vertex -0.15 0.05 -2
   vertex -0.15 0.15 -2
   vertex -0.05 0.05 -2
  endloop
 endfacet
 facet normal 0 0 -1
  outer loop
   vertex -0.05 0.15 -2
   vertex -0.05 0.05 -2
   vertex -0.15 0.15 -2
  endloop
 endfacet
 facet normal 0 0 -1
  outer loop
   vertex -0.15 0.15 -2
   vertex -0.15 0.25 -2
   vertex -0.05 0.15 -2
  endloop
 endfacet
 facet normal 0 0 -1
  outer loop
   vertex -0.05 0.25 -2
   vertex -0.05 0.15 -2
   vertex -0.15 0.25 -2
  endloop
 endfacet
 facet normal 0 0 -1
  outer loop
   vertex -0.05 -0.25 -2
   vertex -0.05 -0.15 -2
   vertex 0.05 -0.25 -2
  endloop
 endfacet
 facet normal 0 0 -1
  outer loop
   vertex 0.05 -0.15 -2
   vertex 0.05 -0.25 -2
   vertex -0.05 -0.15 -2
  endloop
 endfacet
 facet normal 0 0 -1
  outer loop
   vertex -0.05 -0.15 -2
   vertex -0.05 -0.05 -2
   vertex 0.05 -0.15 -2
  endloop
 endfacet
 facet normal 0 0 -1
  outer loop
   vertex 0.05 -0.05 -2
   vertex 0.05 -0.15 -2
   vertex -0.05 -0.05 -2
  endloop
 endfacet
 facet normal 0 0 -1
  outer loop
   vertex -0.05 -0.05 -2
   vertex -0.05 0.05 -2
   vertex 0.05 -0.05 -2
  endloop
 endfacet
 facet normal 0 0 -1
  outer loop
   vertex 0.05 0.05 -2
   vertex 0.05 -0.05 -2
   vertex -0.05 0.05 -2
  endloop
 endfacet
 facet normal 0 0 -1
  outer loop
   vertex -0.05 0.05 -2
   vertex -0.05 0.15 -2
   vertex 0.05 0.05 -2
  endloop
 endfacet
 facet normal 0 0 -1
  outer loop
   vertex 0.05 0.15 -2
   vertex 0.05 0.05 -2
   vertex -0.05 0.15 -2
  endloop
 endfacet
 facet normal 0 0 -1
  outer loop
   vertex -0.05 0.15 -2
   vertex -0.05 0.25 -2
   vertex 0.05 0.15 -2
  endloop
 endfacet
 facet normal 0 0 -1
  outer loop
   vertex 0.05 0.25 -2
   vertex 0.05 0.15 -2
   vertex -0.05 0.25 -2
  endloop
 endfacet
 facet normal 0 0 -1
  outer loop
   vertex 0.05 -0.25 -2
   vertex 0.05 -0.15 -2
   vertex 0.15 -0.25 -2
  endloop
 endfacet
 facet normal 0 0 -1
  outer loop
   vertex 0.15 -0.15 -2
   vertex 0.15 -0.25 -2
   vertex 0.05 -0.15 -2
  endloop
 endfacet
 facet normal 0 0 -1
  outer loop
   vertex 0.05 -0.15 -2
   vertex 0.05 -0.05 -2
   vertex 0.15 -0.15 -2
  endloop
 endfacet
 facet normal 0 0 -1
  outer loop
   vertex 0.15 -0.05 -2
   vertex 0.15 -0.15 -2
   vertex 0.05 -0.05 -2
  endloop
 endfacet
 facet normal 0 0 -1
  outer loop
   vertex 0.05 -0.05 -2
   vertex 0.05 0.05 -2
   vertex 0.15 -0.05 -2
  endloop
 endfacet
 facet normal 0 0 -1
  outer loop
   vertex 0.15 0.05 -2
   vertex 0.15 -0.05 -2
   vertex 0.05 0.05 -2
  endloop
 endfacet
 facet normal 0 0 -1
  outer loop
   vertex 0.05 0.05 -2
   vertex 0.05 0.15 -2
   vertex 0.15 0.05 -2
  endloop
 endfacet
 facet normal 0 0 -1
  outer loop
   vertex 0.15 0.15 -2
   vertex 0.15 0.05 -2
   vertex 0.05 0.15 -2
  endloop
 endfacet
 facet normal 0 0 -1
  outer loop
   vertex 0.05 0.15 -2
   vertex 0.05 0.25 -2
   vertex 0.15 0.15 -2
  endloop
 endfacet
 facet normal 0 0 -1
  outer loop
   vertex 0.15 0.25 -2
   vertex 0.15 0.15 -2
   vertex 0.05 0.25 -2
  endloop
 endfacet
 facet normal 0 0 -1
  outer loop
   vertex 0.15 -0.25 -2
   vertex 0.15 -0.15 -2
   vertex 0.25 -0.25 -2
  endloop
 endfacet
 facet normal 0 0 -1
  outer loop
   vertex 0.25 -0.15 -2
   vertex 0.25 -0.25 -2
   vertex 0.15 -0.15 -2
  endloop
 endfacet
 facet normal 0 0 -1
  outer loop
   vertex 0.15 -0.15 -2
   vertex 0.15 -0.05 -2
   vertex 0.25 -0.15 -2
  endloop
 endfacet
 facet normal 0 0 -1
  outer loop
   vertex 0.25 -0.05 -2
   vertex 0.25 -0.15 -2
   vertex 0.15 -0.05 -2
  endloop
 endfacet
 facet normal 0 0 -1
  outer loop
   vertex 0.15 -0.05 -2
   vertex 0.15 0.05 -2
   vertex 0.25 -0.05 -2
  endloop
 endfacet
 facet normal 0 0 -1
  outer loop
   vertex 0.25 0.05 -2
   vertex 0.25 -0.05 -2
   vertex 0.15 0.05 -2
  endloop
 endfacet
 facet normal 0 0 -1
  outer loop
   vertex 0.15 0.05 -2
   vertex 0.15 0.15 -2
   vertex 0.25 0.05 -2
  endloop
 endfacet
 facet normal 0 0 -1
  outer loop
   vertex 0.25 0.15 -2
   vertex 0.25 0.05 -2
   vertex 0.15 0.15 -2
  endloop
 endfacet
 facet normal 0 0 -1
  outer loop
   vertex 0.15 0.15 -2
   vertex 0.15 0.25 -2
   vertex 0.25 0.15 -2
  endloop
 endfacet
 facet normal 0 0 -1
  outer loop
   vertex 0.25 0.25 -2
   vertex 0.25 0.15 -2
   vertex 0.15 0.25 -2
  endloop
 endfacet
endsolid inlet
