solid out
 facet normal 0 0 1
  outer loop
   vertex 0.75 0 20
   vertex -0.75 0 20
   vertex -0.75 -10 20
  endloop
 endfacet
 facet normal 0 0 1
  outer loop
   vertex 0.75 0 20
   vertex -0.75 -10 20
   vertex 0.75 -10 20
  endloop
 endfacet
 facet normal 0 0 1
  outer loop
   vertex 7.5 2 20
   vertex 0.75 2 20
   vertex 0.75 0 20
  endloop
 endfacet
 facet normal 0 0 1
  outer loop
   vertex 7.5 2 20
   vertex 0.75 0 20
   vertex 7.5 0 20
  endloop
 endfacet
 facet normal 0 0 1
  outer loop
   vertex 0.75 2 20
   vertex -0.75 2 20
   vertex -0.75 0 20
  endloop
 endfacet
 facet normal 0 0 1
  outer loop
   vertex 0.75 2 20
   vertex -0.75 0 20
   vertex 0.75 0 20
  endloop
 endfacet
 facet normal 0 0 1
  outer loop
   vertex -0.75 2 20
   vertex -7.5 0 20
   vertex -0.75 0 20
  endloop
 endfacet
 facet normal 0 0 1
  outer loop
   vertex -0.75 2 20
   vertex -7.5 2 20
   vertex -7.5 0 20
  endloop
 endfacet
endsolid out
solid out
 facet normal 0 0 1
  outer loop
   vertex 0.75 0 20
   vertex -0.75 0 20
   vertex -0.75 -10 20
  endloop
 endfacet
 facet normal 0 0 1
  outer loop
   vertex 0.75 0 20
   vertex -0.75 -10 20
   vertex 0.75 -10 20
  endloop
 endfacet
 facet normal 0 0 1
  outer loop
   vertex 7.5 2 20
   vertex 0.75 2 20
   vertex 0.75 0 20
  endloop
 endfacet
 facet normal 0 0 1
  outer loop
   vertex 7.5 2 20
   vertex 0.75 0 20
   vertex 7.5 0 20
  endloop
 endfacet
 facet normal 0 0 1
  outer loop
   vertex 0.75 2 20
   vertex -0.75 2 20
   vertex -0.75 0 20
  endloop
 endfacet
 facet normal 0 0 1
  outer loop
   vertex 0.75 2 20
   vertex -0.75 0 20
   vertex 0.75 0 20
  endloop
 endfacet
 facet normal 0 0 1
  outer loop
   vertex -0.75 2 20
   vertex -7.5 0 20
   vertex -0.75 0 20
  endloop
 endfacet
 facet normal 0 0 1
  outer loop
   vertex -0.75 2 20
   vertex -7.5 2 20
   vertex -7.5 0 20
  endloop
 endfacet
endsolid out
solid out
 facet normal 0 0 1
  outer loop
   vertex 0.75 0 20
   vertex -0.75 0 20
   vertex -0.75 -10 20
  endloop
 endfacet
 facet normal 0 0 1
  outer loop
   vertex 0.75 0 20
   vertex -0.75 -10 20
   vertex 0.75 -10 20
  endloop
 endfacet
 facet normal 0 0 1
  outer loop
   vertex 7.5 2 20
   vertex 0.75 2 20
   vertex 0.75 0 20
  endloop
 endfacet
 facet normal 0 0 1
  outer loop
   vertex 7.5 2 20
   vertex 0.75 0 20
   vertex 7.5 0 20
  endloop
 endfacet
 facet normal 0 0 1
  outer loop
   vertex 0.75 2 20
   vertex -0.75 2 20
   vertex -0.75 0 20
  endloop
 endfacet
 facet normal 0 0 1
  outer loop
   vertex 0.75 2 20
   vertex -0.75 0 20
   vertex 0.75 0 20
  endloop
 endfacet
 facet normal 0 0 1
  outer loop
   vertex -0.75 2 20
   vertex -7.5 0 20
   vertex -0.75 0 20
  endloop
 endfacet
 facet normal 0 0 1
  outer loop
   vertex -0.75 2 20
   vertex -7.5 2 20
   vertex -7.5 0 20
  endloop
 endfacet
endsolid out
solid out
 facet normal 0 0 1
  outer loop
   vertex 0.75 0 20
   vertex -0.75 0 20
   vertex -0.75 -10 20
  endloop
 endfacet
 facet normal 0 0 1
  outer loop
   vertex 0.75 0 20
   vertex -0.75 -10 20
   vertex 0.75 -10 20
  endloop
 endfacet
 facet normal 0 0 1
  outer loop
   vertex 7.5 2 20
   vertex 0.75 2 20
   vertex 0.75 0 20
  endloop
 endfacet
 facet normal 0 0 1
  outer loop
   vertex 7.5 2 20
   vertex 0.75 0 20
   vertex 7.5 0 20
  endloop
 endfacet
 facet normal 0 0 1
  outer loop
   vertex 0.75 2 20
   vertex -0.75 2 20
   vertex -0.75 0 20
  endloop
 endfacet
 facet normal 0 0 1
  outer loop
   vertex 0.75 2 20
   vertex -0.75 0 20
   vertex 0.75 0 20
  endloop
 endfacet
 facet normal 0 0 1
  outer loop
   vertex -0.75 2 20
   vertex -7.5 0 20
   vertex -0.75 0 20
  endloop
 endfacet
 facet normal 0 0 1
  outer loop
   vertex -0.75 2 20
   vertex -7.5 2 20
   vertex -7.5 0 20
  endloop
 endfacet
endsolid out
